<?xml version="1.0" standalone="no"?>
<!DOCTYPE svg PUBLIC "-//W3C//DTD SVG 20010904//EN"
 "http://www.w3.org/TR/2001/REC-SVG-20010904/DTD/svg10.dtd">
<svg version="1.0" xmlns="http://www.w3.org/2000/svg"
 width="512.000000pt" height="512.000000pt" viewBox="0 0 512.000000 512.000000"
 preserveAspectRatio="xMidYMid meet">

<g transform="translate(0.000000,512.000000) scale(0.100000,-0.100000)"
fill="#000000" stroke="none">
<path d="M2035 5096 c-42 -19 -80 -62 -107 -121 -18 -41 -22 -68 -23 -145 0
-103 13 -140 72 -210 40 -48 160 -123 247 -155 l74 -27 7 -52 c4 -28 13 -65
20 -82 18 -44 72 -102 117 -125 l38 -19 0 -150 0 -149 -57 26 c-46 21 -82 51
-170 143 -85 89 -270 253 -311 276 -2 1 10 23 27 49 16 26 33 60 36 75 7 32
-14 88 -49 134 -12 17 -26 50 -29 73 -4 23 -16 62 -26 87 -19 42 -23 46 -86
65 -37 12 -73 21 -81 21 -8 0 -32 13 -55 29 -67 49 -100 56 -154 32 -25 -11
-58 -29 -73 -39 -15 -11 -51 -25 -80 -31 -104 -22 -129 -47 -151 -150 -6 -29
-20 -66 -32 -82 -11 -15 -29 -49 -40 -74 l-20 -45 20 -45 c11 -25 29 -59 40
-74 11 -15 25 -49 31 -75 25 -111 48 -135 151 -157 29 -6 72 -24 97 -40 91
-58 130 -57 215 3 17 13 63 31 101 40 38 10 79 24 90 32 19 12 26 9 76 -30 30
-24 79 -68 109 -98 l53 -54 -28 -5 c-16 -3 -48 -9 -72 -12 -51 -8 -59 -22 -37
-64 l16 -31 -43 7 c-61 11 -238 7 -270 -6 -16 -6 -28 -16 -28 -23 0 -7 25 -62
55 -123 57 -112 87 -210 100 -322 l7 -63 -29 0 c-45 0 -125 -43 -169 -92 -75
-82 -95 -209 -46 -304 11 -21 90 -137 176 -256 l155 -218 -427 0 c-487 0 -493
-1 -568 -76 -63 -62 -74 -111 -74 -314 0 -92 5 -192 10 -221 31 -166 156 -291
324 -325 132 -27 258 10 359 105 49 47 54 49 65 31 19 -32 117 -100 168 -118
70 -25 74 -29 74 -71 0 -103 48 -270 132 -460 81 -182 99 -257 100 -401 1
-125 -12 -200 -47 -270 -43 -85 -113 -125 -243 -140 -121 -14 -190 10 -242 81
-76 106 -32 239 80 241 68 1 117 -46 127 -122 l6 -40 80 0 80 0 -5 64 c-17
208 -237 329 -418 230 -108 -59 -156 -150 -148 -283 11 -186 157 -328 349
-339 92 -5 217 18 296 55 120 57 210 189 234 343 6 41 13 81 15 88 3 9 78 12
334 12 256 0 331 -3 334 -12 2 -7 10 -50 19 -96 41 -217 156 -335 367 -378
176 -35 312 -1 410 102 70 74 93 129 98 235 4 70 1 94 -15 130 -122 276 -527
211 -551 -87 l-5 -64 80 0 80 0 6 40 c10 76 59 123 126 122 98 -2 148 -98 106
-200 -37 -87 -105 -126 -218 -124 -145 2 -230 41 -283 130 -40 66 -55 144 -55
284 1 142 20 219 99 398 75 169 108 274 123 387 15 117 20 129 62 137 43 8
143 72 178 113 l26 31 44 -44 c54 -55 143 -101 227 -115 122 -22 255 22 348
116 101 101 124 179 124 425 0 214 -11 261 -74 324 -75 75 -81 76 -568 76
l-427 0 155 218 c86 119 165 235 176 256 49 95 29 222 -46 304 -44 49 -124 92
-170 92 l-28 0 7 68 c11 102 51 227 106 330 27 51 49 99 49 107 0 9 -12 20
-27 26 -33 13 -210 17 -271 6 l-43 -7 16 29 c24 47 12 58 -71 72 l-74 12 65
59 c36 33 86 77 111 98 l46 37 38 -18 c22 -11 63 -24 92 -30 29 -7 66 -22 83
-35 16 -12 49 -30 72 -39 40 -16 44 -16 88 4 25 11 58 29 73 39 15 11 53 25
84 32 84 19 113 40 132 96 9 26 16 56 16 67 0 11 13 41 30 66 16 26 36 63 45
84 15 35 14 41 -4 83 -11 25 -29 57 -39 72 -11 15 -25 52 -32 82 -24 106 -48
129 -152 151 -29 6 -60 17 -68 25 -9 7 -41 25 -73 39 -66 31 -95 26 -166 -26
-23 -16 -47 -29 -55 -29 -8 0 -44 -9 -81 -21 -63 -19 -67 -23 -86 -65 -10 -25
-22 -64 -26 -87 -3 -23 -17 -56 -29 -73 -35 -46 -56 -102 -49 -134 3 -15 20
-49 36 -75 17 -26 29 -48 27 -49 -41 -23 -226 -187 -311 -276 -88 -92 -124
-122 -169 -143 l-58 -26 0 149 0 150 39 19 c76 39 141 146 141 231 0 24 7 30
63 50 153 55 259 136 308 236 30 60 32 69 27 147 -14 212 -133 310 -300 247
l-52 -20 -44 21 c-58 29 -140 22 -211 -17 l-51 -27 -51 27 c-72 40 -152 46
-211 16 -44 -21 -46 -22 -79 -5 -44 23 -145 30 -184 11z m113 -147 l31 -11 -6
-78 c-7 -92 2 -120 59 -198 l39 -53 -61 31 c-77 39 -136 92 -150 135 -18 53 2
156 34 177 15 10 18 10 54 -3z m316 -28 c23 -16 50 -38 60 -50 27 -30 43 -27
93 20 50 46 106 73 133 64 36 -11 61 -126 37 -172 -27 -50 -195 -193 -227
-193 -17 0 -111 70 -168 124 -61 58 -75 87 -66 144 15 108 49 124 138 63z
m562 31 c32 -21 52 -124 34 -177 -14 -43 -73 -96 -150 -135 l-61 -31 39 53
c57 78 66 106 59 198 l-6 79 27 9 c34 13 44 14 58 4z m-1402 -267 c28 -30 37
-34 80 -33 26 0 53 -5 59 -11 7 -7 12 -34 12 -61 0 -43 4 -53 33 -79 41 -38
41 -64 -4 -105 -31 -28 -35 -37 -30 -63 4 -16 2 -42 -3 -56 -10 -25 -15 -27
-65 -27 -49 0 -57 -3 -76 -30 -34 -47 -65 -49 -108 -7 -32 31 -44 36 -92 39
l-55 3 -3 56 c-3 49 -7 60 -37 89 -19 19 -35 41 -35 50 0 9 16 31 35 50 31 30
35 40 35 86 0 30 5 56 12 60 6 4 33 7 58 6 41 -1 51 4 81 34 42 43 63 43 103
-1z m1975 1 c30 -30 40 -35 81 -34 25 1 52 -2 58 -6 7 -4 12 -30 12 -60 0 -46
4 -56 35 -86 19 -19 35 -40 35 -48 0 -8 -16 -30 -35 -49 -30 -30 -34 -41 -37
-91 l-3 -57 -55 -3 c-48 -3 -60 -8 -92 -39 -43 -42 -74 -40 -108 7 -19 27 -27
30 -76 30 -50 0 -55 2 -64 26 -6 15 -8 41 -4 59 5 27 1 36 -24 56 -16 13 -35
34 -41 46 -10 19 -7 27 26 60 33 33 38 43 38 85 0 26 5 52 12 59 6 6 33 11 59
11 43 -1 52 3 80 33 40 44 61 44 103 1z m-1039 -310 c14 0 42 4 63 8 46 10 48
-2 8 -46 -24 -27 -36 -33 -71 -33 -35 0 -47 6 -71 33 -40 44 -38 56 9 46 20
-4 48 -8 62 -8z m-285 -600 c61 -16 122 -46 163 -80 l30 -26 -25 -61 c-14 -34
-30 -91 -37 -128 -12 -63 -13 -65 -19 -31 -12 62 -75 179 -125 233 -26 29 -53
64 -60 80 -14 32 -5 34 73 13z m634 -37 c-34 -89 -59 -210 -65 -321 l-7 -108
-144 0 -143 0 0 58 c0 124 49 252 121 317 60 54 167 101 236 104 l21 1 -19
-51z m-896 -69 c71 -27 129 -71 167 -127 33 -51 70 -158 70 -204 l0 -30 -142
3 -143 3 -3 40 c-7 97 -39 232 -78 329 -7 18 -4 19 34 12 23 -3 66 -15 95 -26z
m1222 13 c-38 -95 -70 -231 -77 -328 l-3 -40 -77 -3 -78 -3 0 88 c0 99 22 220
44 242 18 17 141 60 175 61 18 0 22 -4 16 -17z m110 -533 c36 -14 75 -58 75
-86 l0 -24 -860 0 -860 0 0 23 c1 28 27 62 65 81 26 14 125 16 792 16 478 0
771 -4 788 -10z m-4 -277 c-6 -10 -77 -110 -158 -223 l-148 -205 -475 0 -475
0 -148 205 c-81 113 -152 213 -158 223 -9 16 31 17 781 17 750 0 790 -1 781
-17z m756 -625 c22 -20 23 -29 23 -140 l0 -118 -1560 0 -1560 0 0 117 c0 106
2 119 22 140 l21 23 1516 0 1515 0 23 -22z m-2627 -437 c0 -26 -70 -99 -119
-123 -93 -47 -188 -35 -266 33 -31 28 -65 76 -65 94 0 3 101 5 225 5 131 0
225 -4 225 -9z m641 -28 c-39 -76 -119 -123 -211 -123 -88 0 -175 53 -216 133
l-15 27 231 0 230 0 -19 -37z m657 -4 c-88 -158 -328 -158 -417 1 l-22 40 231
0 231 0 -23 -41z m668 14 c-22 -43 -77 -94 -121 -114 -106 -49 -254 1 -305
102 l-20 39 230 0 231 0 -15 -27z m664 22 c0 -18 -34 -66 -65 -94 -78 -68
-173 -80 -266 -33 -49 24 -119 97 -119 123 0 5 94 9 225 9 124 0 225 -2 225
-5z m-1818 -210 c166 -149 391 -148 558 2 l50 45 51 -47 c43 -40 105 -76 173
-99 16 -6 18 -13 12 -67 -11 -96 -42 -204 -94 -323 l-47 -111 -425 0 -425 0
-47 111 c-52 119 -83 227 -94 323 -6 54 -4 61 12 67 60 20 144 68 179 103 21
23 41 41 43 41 2 0 26 -20 54 -45z m634 -797 c-3 -13 -9 -49 -13 -80 l-6 -58
-337 0 -337 0 -6 58 c-4 31 -10 67 -13 80 l-6 22 362 0 362 0 -6 -22z"/>
<path d="M1482 4546 c-35 -33 -37 -38 -37 -96 0 -58 2 -63 37 -96 31 -28 45
-34 83 -34 84 0 138 50 138 130 0 80 -54 130 -138 130 -38 0 -52 -6 -83 -34z
m128 -76 c17 -33 -4 -62 -43 -58 -25 2 -33 8 -35 26 -6 37 5 52 37 52 20 0 34
-7 41 -20z"/>
<path d="M3474 4561 c-21 -13 -38 -36 -49 -65 -17 -43 -17 -48 -1 -91 22 -56
66 -85 130 -85 39 0 52 6 84 34 35 33 37 38 37 96 0 58 -2 63 -37 96 -32 29
-45 34 -85 34 -30 0 -60 -7 -79 -19z m111 -111 c0 -32 -3 -35 -32 -38 -24 -2
-34 2 -43 17 -17 34 4 63 43 59 29 -3 32 -6 32 -38z"/>
</g>
</svg>
