<?xml version="1.0" standalone="no"?>
<!DOCTYPE svg PUBLIC "-//W3C//DTD SVG 20010904//EN"
 "http://www.w3.org/TR/2001/REC-SVG-20010904/DTD/svg10.dtd">
<svg version="1.0" xmlns="http://www.w3.org/2000/svg"
 width="840.000000pt" height="808.000000pt" viewBox="0 0 840.000000 808.000000"
 preserveAspectRatio="xMidYMid meet">

<g transform="translate(0.000000,808.000000) scale(0.100000,-0.100000)"
fill="#000000" stroke="none">
<path d="M3741 7663 c-12 -5 -293 -205 -1788 -1270 -395 -282 -443 -320 -457
-354 -14 -34 -16 -114 -16 -584 0 -429 -3 -545 -12 -545 -7 0 -99 11 -203 24
-105 13 -204 21 -220 19 -17 -3 -203 -82 -415 -177 -341 -152 -387 -175 -407
-205 l-23 -34 0 -1081 c0 -1027 1 -1083 18 -1115 19 -35 114 -91 656 -384
l169 -91 201 28 c111 15 209 30 219 32 15 5 17 -5 17 -118 1 -199 -38 -162
456 -432 230 -126 478 -262 549 -302 140 -77 1164 -637 1230 -673 22 -11 55
-21 74 -21 21 0 194 60 420 146 213 81 508 193 656 249 149 57 448 170 665
253 1333 506 1945 739 2250 854 190 72 355 137 367 145 56 36 53 -35 53 1405
0 1303 0 1323 -20 1356 -11 18 -35 39 -52 47 -18 8 -276 90 -573 180 -297 91
-548 168 -557 171 -17 5 -18 35 -18 437 0 391 -2 435 -18 467 -21 43 -30 48
-2688 1362 -445 220 -478 233 -533 211z m713 -858 c197 -85 364 -160 372 -166
12 -9 14 -90 14 -468 0 -471 -1 -481 -40 -481 -29 0 -735 222 -742 233 -4 7
-8 237 -8 513 0 504 1 524 35 524 6 0 172 -70 369 -155z m-974 46 c6 -13 10
-188 10 -499 0 -444 -1 -480 -17 -494 -31 -27 -482 -220 -506 -216 l-22 3 -3
456 c-2 415 -1 458 14 470 48 40 472 298 491 298 12 1 27 -8 33 -18z m2158
-557 c136 -58 257 -112 270 -120 l22 -15 -2 -391 c-3 -378 -4 -391 -23 -403
-17 -12 -54 -3 -273 65 -140 43 -260 84 -268 91 -12 10 -14 80 -14 433 0 419
2 446 32 446 5 0 120 -48 256 -106z m-3026 29 c17 -15 18 -41 18 -422 0 -223
-4 -412 -8 -418 -11 -17 -341 -163 -369 -163 -12 0 -27 9 -33 19 -10 20 -15
718 -4 756 5 19 70 64 288 197 44 26 82 48 84 48 3 0 14 -7 24 -17z m3905
-408 c108 -47 201 -91 205 -98 12 -19 10 -665 -2 -688 -6 -10 -18 -19 -28 -19
-30 0 -386 113 -404 128 -17 14 -18 44 -18 370 0 317 2 357 17 374 9 10 20 18
24 18 5 0 97 -38 206 -85z m-4519 23 c18 -18 17 -721 0 -736 -16 -12 -265
-122 -278 -122 -5 0 -16 7 -24 16 -14 13 -16 58 -16 342 0 180 4 332 8 338 11
19 264 174 282 174 9 0 21 -5 28 -12z m2453 -984 c200 -36 370 -70 377 -76 9
-8 12 -110 10 -471 -3 -416 -5 -461 -20 -470 -17 -11 -686 19 -738 33 l-25 6
-3 509 c-2 496 0 535 28 535 4 0 171 -30 371 -66z m-971 7 c6 -13 10 -186 10
-493 0 -384 -3 -478 -14 -493 -11 -16 -45 -21 -259 -38 -135 -11 -253 -17
-261 -14 -14 6 -16 57 -16 460 0 355 3 457 13 465 17 14 443 129 484 131 23 1
35 -5 43 -18z m2175 -226 c137 -25 255 -51 262 -57 10 -8 13 -92 13 -403 0
-347 -2 -394 -16 -406 -13 -11 -60 -10 -277 5 -144 10 -268 23 -274 28 -10 8
-13 108 -13 438 0 234 3 430 7 433 12 12 46 8 298 -38z m-3041 9 c14 -13 16
-66 16 -424 l0 -410 -22 -14 c-15 -9 -85 -18 -197 -26 -166 -13 -175 -12 -187
5 -11 15 -14 94 -14 391 0 407 -2 396 58 411 15 3 90 23 167 44 165 44 159 43
179 23z m3906 -165 c101 -19 182 -38 193 -47 16 -14 17 -43 17 -347 0 -263 -3
-335 -14 -350 -13 -17 -22 -18 -217 -6 -169 10 -206 14 -216 28 -17 22 -19
704 -3 734 14 26 33 25 240 -12z m-4526 5 c14 -13 16 -61 16 -374 0 -332 -1
-360 -17 -368 -10 -5 -63 -13 -118 -16 -55 -4 -114 -10 -131 -12 -64 -11 -64
-11 -64 360 0 255 3 336 13 344 9 8 248 77 279 81 4 1 14 -6 22 -15z m5314
-149 c94 -18 141 -31 150 -42 9 -13 12 -90 12 -304 0 -245 -2 -288 -15 -299
-12 -10 -50 -11 -163 -6 -133 6 -149 9 -165 28 -16 20 -18 45 -15 325 3 257 5
305 18 313 21 13 24 13 178 -15z m480 -91 c59 -9 113 -21 120 -27 19 -15 17
-540 -2 -557 -22 -17 -245 -3 -268 18 -16 14 -18 40 -18 279 0 163 4 272 10
284 13 23 23 23 158 3z m-6840 -36 c9 -9 12 -84 12 -274 0 -216 -3 -264 -14
-274 -8 -6 -63 -16 -122 -21 -93 -9 -109 -8 -123 6 -14 13 -16 50 -19 243 -2
170 1 233 11 252 10 20 31 30 107 51 109 31 131 34 148 17z m-410 -110 c15
-15 17 -445 2 -468 -11 -18 -166 -33 -192 -19 -16 9 -18 29 -18 229 0 153 3
221 11 226 16 10 139 42 165 43 11 1 25 -4 32 -11z m-2 -829 c11 -9 14 -54 14
-240 0 -273 5 -263 -118 -228 -42 11 -83 26 -89 31 -10 8 -13 66 -13 228 0
119 3 220 8 224 11 12 181 -1 198 -15z m296 -20 c57 -6 109 -16 116 -21 17
-15 18 -528 0 -546 -17 -17 -41 -14 -148 17 -75 22 -98 33 -108 52 -18 35 -13
469 7 492 16 20 5 20 133 6z m7071 -21 c16 -12 17 -38 15 -283 l-3 -270 -25
-11 c-14 -7 -73 -20 -132 -30 -88 -15 -109 -16 -122 -5 -14 12 -16 50 -16 291
0 220 3 280 13 289 11 9 110 21 233 30 11 0 28 -5 37 -11z m-453 -38 c19 -19
20 -33 20 -303 0 -211 -3 -287 -12 -299 -9 -10 -61 -25 -149 -42 -163 -31
-175 -32 -189 -7 -6 12 -10 132 -10 319 0 265 2 301 16 313 11 9 67 18 153 25
75 6 139 12 144 13 4 0 16 -8 27 -19z m-5572 -43 c77 -9 116 -18 123 -27 5 -9
9 -170 9 -366 0 -366 -1 -374 -44 -374 -34 0 -250 63 -268 78 -17 14 -18 43
-18 347 0 244 3 334 12 343 15 15 42 14 186 -1z m4660 -19 c19 -19 17 -1701
-2 -1720 -21 -21 -633 -250 -659 -246 l-22 3 -3 962 -2 962 22 7 c24 7 480 41
589 43 39 1 70 -4 77 -11z m-4064 -39 c83 -8 133 -17 142 -27 12 -11 14 -82
12 -424 -3 -398 -4 -411 -23 -423 -17 -11 -47 -5 -195 36 -108 30 -180 55
-187 66 -10 13 -13 107 -13 389 0 429 -4 411 84 401 28 -4 109 -12 180 -18z
m2939 -31 c16 -12 17 -84 15 -1043 l-3 -1030 -45 -21 c-119 -56 -902 -345
-927 -342 l-28 3 -3 1183 -2 1182 22 9 c17 6 726 59 929 70 14 0 33 -5 42 -11z
m-2185 -42 c132 -14 239 -29 247 -36 13 -11 15 -84 15 -496 0 -471 -1 -485
-20 -504 -11 -11 -30 -20 -42 -20 -35 0 -188 43 -343 97 l-140 48 -3 454 c-2
466 -1 481 37 481 9 0 121 -11 249 -24z"/>
</g>
</svg>
