<?xml version="1.0" standalone="no"?>
<!DOCTYPE svg PUBLIC "-//W3C//DTD SVG 20010904//EN"
 "http://www.w3.org/TR/2001/REC-SVG-20010904/DTD/svg10.dtd">
<svg version="1.0" xmlns="http://www.w3.org/2000/svg"
 width="820.000000pt" height="512.000000pt" viewBox="0 0 820.000000 512.000000"
 preserveAspectRatio="xMidYMid meet">
<metadata>
Created by potrace 1.16, written by Peter Selinger 2001-2019
</metadata>
<g transform="translate(0.000000,512.000000) scale(0.100000,-0.100000)"
fill="#000000" stroke="none">
<path d="M5438 5105 c-157 -40 -193 -78 -526 -555 -152 -217 -298 -416 -324
-442 -90 -88 -215 -138 -344 -138 -100 0 -190 33 -338 123 -97 60 -188 61
-273 4 -92 -62 -126 -197 -76 -292 13 -23 248 -266 565 -582 414 -413 554
-547 588 -562 122 -55 274 16 310 145 22 76 9 131 -54 243 -71 124 -96 187
-102 265 -12 135 41 287 133 380 26 26 181 141 343 254 567 395 567 395 622
507 55 110 62 254 19 367 -45 117 -152 224 -268 268 -74 28 -197 35 -275 15z"/>
<path d="M3207 3432 l-127 -127 558 -558 557 -557 128 128 127 127 -558 558
-557 557 -128 -128z"/>
<path d="M2578 2803 c-252 -253 -379 -387 -384 -406 -15 -63 4 -98 108 -195
l57 -54 207 167 c195 157 239 187 239 159 0 -7 -76 -103 -170 -213 -93 -111
-171 -206 -173 -211 -5 -15 418 -431 431 -423 7 4 139 105 294 225 155 120
289 218 297 218 33 0 47 18 -311 -423 l-142 -175 88 -86 c86 -84 89 -86 137
-86 l48 0 383 383 383 382 -558 558 -557 557 -377 -377z"/>
<path d="M3246 859 c-31 -37 -151 -281 -196 -399 -61 -160 -47 -270 46 -365
63 -66 121 -90 214 -89 169 0 290 113 298 279 4 62 -1 83 -33 170 -46 122
-172 378 -202 411 -34 37 -93 33 -127 -7z"/>
</g>
</svg>
