<?xml version="1.0" standalone="no"?>
<!DOCTYPE svg PUBLIC "-//W3C//DTD SVG 20010904//EN"
 "http://www.w3.org/TR/2001/REC-SVG-20010904/DTD/svg10.dtd">
<svg version="1.0" xmlns="http://www.w3.org/2000/svg"
 width="211.000000pt" height="96.000000pt" viewBox="0 0 211.000000 96.000000"
 preserveAspectRatio="xMidYMid meet">
<metadata>
Created by potrace 1.16, written by Peter Selinger 2001-2019
</metadata>
<g transform="translate(0.000000,96.000000) scale(0.100000,-0.100000)"
fill="#000000" stroke="none">
<path d="M583 876 c-51 -23 -63 -59 -63 -189 0 -102 2 -117 22 -142 44 -56 83
-65 296 -65 l193 0 -3 170 -3 170 -33 32 -32 33 -173 2 c-131 2 -180 0 -204
-11z"/>
<path d="M1125 880 c-11 -4 -31 -20 -45 -35 -24 -26 -25 -31 -28 -196 l-3
-169 192 0 c175 0 197 2 236 21 72 35 83 59 83 189 0 188 -16 200 -257 199
-87 0 -167 -4 -178 -9z"/>
<path d="M328 658 c2 -46 10 -103 18 -128 19 -60 75 -134 130 -172 46 -33 50
-42 35 -81 -8 -20 -19 -25 -63 -31 -85 -11 -350 -65 -357 -72 -3 -4 9 -4 27
-1 56 11 423 48 434 45 6 -2 -46 -14 -116 -27 -70 -13 -125 -25 -122 -28 2 -3
74 2 158 11 249 27 246 26 218 17 -14 -5 -53 -15 -88 -21 -34 -7 -61 -14 -59
-16 1 -2 59 4 127 12 177 23 604 23 769 1 69 -9 126 -15 128 -13 2 2 -20 9
-49 16 -78 18 -92 30 -28 24 68 -7 275 -33 315 -40 61 -10 -2 15 -85 35 -82
20 -120 36 -64 26 16 -2 76 -9 132 -15 57 -6 138 -17 179 -24 41 -8 71 -10 66
-5 -14 13 -182 57 -311 81 l-122 22 -6 32 c-5 28 0 37 50 87 75 75 97 127 105
250 l6 97 -76 0 -77 0 -3 -83 c-4 -73 -8 -89 -33 -125 -18 -26 -47 -51 -79
-67 l-51 -25 -396 0 -396 0 -51 25 c-32 16 -61 41 -79 67 -25 36 -29 52 -33
125 l-3 83 -77 0 -77 0 4 -82z"/>
</g>
</svg>
