<?xml version="1.0" standalone="no"?>
<!DOCTYPE svg PUBLIC "-//W3C//DTD SVG 20010904//EN"
 "http://www.w3.org/TR/2001/REC-SVG-20010904/DTD/svg10.dtd">
<svg version="1.0" xmlns="http://www.w3.org/2000/svg"
 width="101.000000pt" height="96.000000pt" viewBox="0 0 101.000000 96.000000"
 preserveAspectRatio="xMidYMid meet">

<g transform="translate(0.000000,96.000000) scale(0.100000,-0.100000)"
fill="#000000" stroke="none">
<path d="M457 911 c-2 -9 -70 -59 -152 -111 -116 -74 -149 -90 -156 -79 -11
17 -10 49 -9 -354 0 -214 -3 -317 -10 -317 -7 0 -10 108 -10 336 1 185 -2 339
-5 342 -3 3 -5 -6 -5 -21 0 -16 -10 -33 -26 -46 -15 -12 -22 -21 -16 -21 6 0
14 5 17 10 21 34 25 -14 25 -295 0 -264 -2 -305 -15 -305 -12 0 -12 -3 2 -18
13 -13 19 -14 21 -5 5 21 20 15 25 -9 l4 -23 2 23 c1 20 6 22 65 22 53 0 65
-3 69 -17 4 -17 5 -17 6 0 1 22 18 22 24 0 4 -17 5 -17 6 0 1 15 16 17 176 17
158 0 175 -2 175 -17 0 -15 2 -14 15 3 14 19 14 19 15 -1 1 -18 1 -19 11 -2 8
13 23 17 64 17 50 0 55 -2 56 -22 l0 -23 9 22 c12 29 27 29 33 1 4 -23 4 -23
6 -1 1 18 8 23 39 26 l37 4 -38 1 -37 2 0 266 c1 147 -2 269 -5 272 -3 3 -5
-25 -5 -62 0 -90 -23 -86 -30 5 l-6 64 -4 -56 -5 -56 -175 112 -175 112 -3 93
c-1 51 1 96 6 99 6 3 4 11 -3 18 -10 9 -14 8 -18 -6z m3 -276 l0 -245 -70 0
c-49 0 -70 4 -70 13 0 8 -4 7 -10 -3 -9 -13 -11 -13 -20 0 -6 10 -10 11 -10 3
0 -7 -10 -14 -22 -14 l-23 -2 23 -4 c22 -4 22 -6 22 -169 l0 -164 -65 0 -65 0
0 230 0 230 98 1 c53 1 85 4 70 6 -26 4 -41 23 -18 23 6 0 10 22 10 49 0 46
-2 49 -27 53 -16 2 -41 1 -58 -2 -28 -5 -30 -9 -33 -53 -3 -38 0 -47 13 -47 9
0 13 -4 10 -10 -3 -5 -20 -10 -36 -10 l-30 0 3 86 3 86 145 94 c80 51 148 94
152 94 4 0 7 -110 8 -245z m368 -374 l2 -211 -60 0 -60 0 0 165 c0 164 0 165
23 166 l22 2 -22 4 c-13 2 -23 10 -23 16 0 7 -4 6 -10 -3 -9 -13 -11 -13 -20
0 -6 10 -10 11 -10 3 0 -10 -27 -13 -100 -13 l-100 0 0 155 0 154 178 -113
177 -114 3 -211z m-553 269 c4 -6 -5 -10 -19 -10 -14 0 -26 5 -26 10 0 6 9 10
19 10 11 0 23 -4 26 -10z m595 -280 c0 -171 -2 -200 -15 -200 -13 0 -15 29
-15 200 0 171 2 200 15 200 13 0 15 -29 15 -200z m-560 -35 c0 -103 -4 -165
-10 -165 -6 0 -10 62 -10 165 0 103 4 165 10 165 6 0 10 -62 10 -165z m360 0
l0 -165 -40 0 -40 0 0 40 c0 40 0 40 -39 40 -36 0 -39 2 -45 35 -4 19 -12 37
-18 41 -8 5 -9 2 -3 -12 5 -10 11 -47 13 -82 l4 -62 -91 0 -91 0 0 165 0 165
175 0 175 0 0 -165z m30 0 c0 -103 -4 -165 -10 -165 -6 0 -10 62 -10 165 0
103 4 165 10 165 6 0 10 -62 10 -165z m-122 -132 c3 -32 2 -33 -32 -33 -33 0
-36 3 -36 28 0 36 8 44 40 40 20 -2 26 -9 28 -35z"/>
<path d="M226 695 c-9 -25 -9 -25 25 -25 24 0 30 4 27 18 -4 23 -44 28 -52 7z"/>
<path d="M510 550 c-13 -9 -13 -11 0 -20 19 -12 35 -8 35 10 0 18 -16 22 -35
10z"/>
<path d="M613 493 c-23 -8 -14 -33 12 -33 14 0 25 4 25 9 0 14 -24 29 -37 24z"/>
<path d="M477 316 c-3 -8 1 -17 9 -20 8 -3 14 -12 14 -20 0 -10 6 -13 15 -10
18 7 20 25 3 22 -7 -2 -13 3 -14 10 -1 6 -2 17 -3 22 -2 15 -18 12 -24 -4z"/>
<path d="M360 165 c0 -8 7 -16 15 -16 8 -1 23 -2 32 -3 9 0 18 5 21 13 3 9 -1
11 -16 7 -11 -4 -23 -2 -27 4 -9 15 -25 12 -25 -5z"/>
<path d="M380 110 c0 -13 7 -20 19 -20 14 0 18 5 14 20 -3 11 -12 20 -19 20
-8 0 -14 -9 -14 -20z"/>
</g>
</svg>
