<?xml version="1.0" standalone="no"?>
<!DOCTYPE svg PUBLIC "-//W3C//DTD SVG 20010904//EN"
 "http://www.w3.org/TR/2001/REC-SVG-20010904/DTD/svg10.dtd">
<svg version="1.0" xmlns="http://www.w3.org/2000/svg"
 width="512.000000pt" height="512.000000pt" viewBox="0 0 512.000000 512.000000"
 preserveAspectRatio="xMidYMid meet">
<metadata>
Created by potrace 1.16, written by Peter Selinger 2001-2019
</metadata>
<g transform="translate(0.000000,512.000000) scale(0.100000,-0.100000)"
fill="#000000" stroke="none">
<path d="M2305 5113 c-476 -51 -912 -223 -1301 -514 -127 -95 -388 -356 -483
-483 -260 -347 -420 -718 -492 -1140 -27 -156 -37 -516 -19 -679 46 -428 186
-815 420 -1162 l52 -77 -161 -476 c-88 -262 -159 -477 -158 -478 1 -2 218 66
482 151 264 85 489 155 499 155 10 0 42 -14 70 -32 320 -200 690 -326 1083
-368 163 -18 523 -8 679 19 422 72 794 232 1140 492 127 95 388 356 483 483
264 353 425 732 498 1171 26 158 26 612 0 770 -73 439 -234 818 -498 1171 -95
127 -356 388 -483 483 -346 259 -716 419 -1140 492 -97 17 -172 22 -376 24
-140 2 -273 1 -295 -2z m-550 -1187 c26 -11 41 -29 64 -75 58 -114 271 -638
271 -666 0 -47 -39 -109 -136 -220 -51 -57 -98 -114 -104 -124 -27 -51 -1
-119 99 -261 219 -311 469 -529 784 -680 250 -121 281 -113 442 110 116 161
162 199 229 184 68 -15 651 -299 676 -330 36 -43 4 -279 -54 -392 -83 -164
-340 -315 -574 -337 -243 -24 -822 178 -1165 406 -347 231 -704 609 -982 1038
-140 216 -225 466 -225 661 0 210 65 388 200 547 62 75 120 116 193 138 58 19
238 19 282 1z"/>
</g>
</svg>
